<svg id="svg" version="1.1" xmlns="http://www.w3.org/2000/svg" xmlns:xlink="http://www.w3.org/1999/xlink" width="400" height="400" viewBox="0, 0, 400,400">
    <g id="svgg">
        <path id="path0" d="M189.000 70.023 C 188.120 70.205,186.379 70.364,185.131 70.377 C 183.882 70.390,181.902 70.592,180.731 70.826 C 179.559 71.060,177.610 71.435,176.400 71.659 C 173.747 72.149,171.157 72.708,169.000 73.258 C 168.120 73.483,166.770 73.820,166.000 74.008 C 165.230 74.197,162.221 75.108,159.314 76.033 L 154.028 77.716 154.909 78.953 C 157.959 83.237,154.187 92.406,145.019 102.994 C 140.953 107.690,138.614 109.188,133.800 110.183 C 129.117 111.151,123.365 113.836,118.400 117.372 C 110.686 122.867,107.400 124.737,104.522 125.272 C 100.221 126.072,97.938 124.988,96.965 121.684 L 96.530 120.207 95.365 121.891 C 94.724 122.817,93.848 123.694,93.419 123.840 C 92.469 124.163,91.600 124.990,91.600 125.571 C 91.600 125.807,91.420 126.000,91.200 126.000 C 90.980 126.000,90.800 126.270,90.800 126.600 C 90.800 126.930,90.641 127.200,90.446 127.200 C 90.251 127.200,89.796 127.822,89.435 128.583 C 89.074 129.344,88.603 130.074,88.389 130.207 C 88.175 130.339,88.000 130.730,88.000 131.077 C 88.000 131.423,87.685 131.997,87.300 132.353 C 86.915 132.709,86.541 133.270,86.470 133.600 C 86.398 133.930,86.173 134.260,85.970 134.333 C 85.766 134.407,85.600 134.812,85.600 135.233 C 85.600 135.655,85.441 136.000,85.247 136.000 C 85.052 136.000,84.793 136.315,84.671 136.700 C 84.454 137.385,83.196 139.604,82.800 140.000 C 82.260 140.540,81.600 142.077,81.600 142.795 C 81.600 143.238,81.420 143.600,81.200 143.600 C 80.980 143.600,80.800 143.960,80.800 144.400 C 80.800 144.840,80.620 145.200,80.400 145.200 C 80.180 145.200,80.000 145.434,80.000 145.720 C 80.000 146.456,79.059 148.393,78.700 148.397 C 78.535 148.399,78.400 148.814,78.400 149.320 C 78.400 149.826,78.194 150.446,77.942 150.698 C 77.255 151.385,79.245 151.762,81.733 151.416 C 84.954 150.969,90.623 150.421,94.897 150.145 L 98.793 149.893 108.841 170.247 C 114.367 181.441,122.289 197.486,126.444 205.902 C 135.045 223.320,134.889 222.904,132.200 221.266 C 131.540 220.864,130.190 220.080,129.200 219.524 C 127.238 218.422,125.129 217.221,123.100 216.050 C 109.858 208.406,111.324 208.884,109.764 211.699 C 107.770 215.294,107.748 215.052,110.313 217.609 C 112.368 219.658,113.640 221.599,114.631 224.200 C 116.006 227.810,116.046 228.539,116.414 256.600 C 116.815 287.162,117.027 289.778,119.618 296.200 C 122.196 302.588,122.152 305.537,119.514 303.272 C 118.791 302.651,117.820 301.886,117.356 301.572 C 113.311 298.834,102.565 287.943,97.254 281.200 C 96.128 279.770,94.923 278.240,94.576 277.800 C 94.230 277.360,93.650 276.505,93.287 275.900 C 92.924 275.295,92.486 274.800,92.314 274.800 C 92.141 274.800,92.000 274.530,92.000 274.200 C 92.000 273.870,91.820 273.600,91.600 273.600 C 91.380 273.600,91.200 273.330,91.200 273.000 C 91.200 272.670,91.050 272.400,90.868 272.400 C 90.685 272.400,90.285 271.905,89.980 271.300 C 89.004 269.365,87.023 266.400,86.706 266.400 C 86.311 266.400,86.305 267.891,86.700 268.067 C 86.865 268.140,87.530 269.190,88.179 270.400 C 88.827 271.610,89.682 272.949,90.079 273.375 C 90.475 273.802,90.800 274.387,90.800 274.675 C 90.800 274.964,90.980 275.200,91.200 275.200 C 91.420 275.200,91.600 275.430,91.600 275.712 C 91.600 275.993,91.960 276.483,92.400 276.800 C 92.840 277.117,93.200 277.625,93.200 277.928 C 93.200 278.231,93.740 278.983,94.400 279.600 C 95.060 280.217,95.600 281.019,95.600 281.384 C 95.600 281.749,95.780 281.936,96.000 281.800 C 96.220 281.664,96.405 281.788,96.412 282.076 C 96.419 282.364,96.988 283.050,97.677 283.600 C 98.366 284.150,101.916 287.583,105.565 291.229 C 112.305 297.963,114.951 300.426,117.808 302.626 C 118.684 303.300,120.615 304.789,122.101 305.935 C 131.987 313.562,145.916 320.779,159.200 325.157 C 164.235 326.816,164.796 326.977,169.000 327.978 C 170.980 328.449,173.251 329.007,174.046 329.217 C 174.842 329.428,176.023 329.600,176.670 329.600 C 177.317 329.600,178.196 329.864,178.624 330.187 C 179.051 330.510,179.884 330.780,180.476 330.787 C 181.068 330.794,181.664 330.980,181.800 331.200 C 181.936 331.420,183.466 331.600,185.200 331.600 C 186.934 331.600,188.464 331.780,188.600 332.000 C 188.945 332.559,205.467 332.539,205.812 331.980 C 205.955 331.749,205.144 330.217,204.009 328.575 C 202.874 326.934,202.003 325.266,202.073 324.870 C 202.143 324.474,209.002 313.974,217.315 301.537 L 232.431 278.923 231.987 276.961 C 231.743 275.883,231.189 272.840,230.756 270.200 C 229.684 263.663,229.103 261.587,227.046 256.947 C 224.202 250.532,224.075 247.059,226.382 238.800 C 229.504 227.624,228.522 223.415,221.494 217.847 C 218.984 215.858,218.559 214.897,218.263 210.546 C 217.533 199.788,210.063 196.390,194.200 199.598 C 193.100 199.820,190.940 200.180,189.400 200.397 C 187.860 200.614,186.100 200.899,185.489 201.030 C 180.917 202.010,174.301 198.876,167.400 192.459 C 166.300 191.437,164.590 189.901,163.600 189.047 C 154.951 181.583,153.647 179.089,155.232 173.046 C 155.469 172.141,155.854 170.680,156.087 169.800 C 161.589 149.043,172.921 135.427,189.200 130.012 C 190.630 129.537,192.160 128.992,192.600 128.802 C 207.967 122.162,225.688 122.104,222.931 128.703 C 221.790 131.435,222.478 132.154,229.837 135.910 C 234.690 138.387,236.499 138.775,238.356 137.738 C 239.883 136.885,239.819 137.099,239.213 134.849 C 238.565 132.440,238.953 132.153,241.989 132.798 C 243.326 133.081,244.526 133.208,244.655 133.078 C 244.902 132.832,238.823 122.456,236.778 119.633 C 235.467 117.824,234.100 117.364,234.599 118.900 C 235.896 122.898,234.155 126.000,230.614 126.000 C 229.024 126.000,226.002 123.820,226.000 122.672 C 226.000 122.176,223.561 118.699,222.638 117.877 C 221.880 117.203,221.100 116.806,218.281 115.656 C 213.566 113.734,207.742 115.536,200.175 121.261 C 190.572 128.525,183.824 129.460,180.961 123.924 C 178.332 118.841,181.436 115.200,188.397 115.200 C 193.238 115.200,194.309 108.782,190.157 104.647 C 188.924 103.419,186.035 102.000,184.767 102.000 C 183.418 102.000,183.724 98.894,185.300 96.588 C 187.686 93.096,191.838 91.816,194.988 93.600 C 200.145 96.521,201.403 96.920,205.467 96.920 C 209.132 96.920,211.709 96.169,214.500 94.287 C 216.202 93.140,215.878 92.837,211.600 91.583 C 207.698 90.440,207.821 88.233,212.033 83.830 C 213.941 81.834,213.943 82.061,212.000 79.200 C 211.120 77.904,210.400 76.742,210.400 76.618 C 210.400 76.494,209.383 74.864,208.140 72.996 L 205.880 69.600 198.240 69.646 C 194.038 69.671,189.880 69.841,189.000 70.023 M312.800 133.400 C 312.800 133.730,312.980 134.000,313.200 134.000 C 313.420 134.000,313.600 134.270,313.600 134.600 C 313.600 134.930,313.780 135.200,314.000 135.200 C 314.220 135.200,314.400 135.470,314.400 135.800 C 314.400 136.130,314.580 136.400,314.800 136.400 C 315.020 136.400,315.200 136.850,315.200 137.400 C 315.200 137.950,315.380 138.400,315.600 138.400 C 315.820 138.400,316.000 138.670,316.000 139.000 C 316.000 139.330,316.180 139.600,316.400 139.600 C 316.620 139.600,316.800 139.960,316.800 140.400 C 316.800 140.840,316.980 141.200,317.200 141.200 C 317.420 141.200,317.600 141.476,317.600 141.813 C 317.600 142.151,318.050 143.315,318.600 144.400 C 319.150 145.485,319.600 146.649,319.600 146.987 C 319.600 147.324,319.780 147.600,320.000 147.600 C 320.220 147.600,320.400 147.872,320.400 148.205 C 320.400 148.538,320.559 149.123,320.753 149.505 C 320.948 149.887,321.329 150.740,321.600 151.400 C 321.871 152.060,322.252 152.913,322.447 153.295 C 322.641 153.677,322.800 154.352,322.800 154.795 C 322.800 155.238,322.980 155.600,323.200 155.600 C 323.420 155.600,323.600 156.039,323.600 156.576 C 323.600 157.113,323.780 157.664,324.000 157.800 C 324.220 157.936,324.400 158.577,324.400 159.224 C 324.400 159.871,324.569 160.400,324.775 160.400 C 324.981 160.400,325.229 160.895,325.326 161.500 C 325.423 162.105,325.433 161.520,325.347 160.200 C 325.262 158.880,325.014 157.740,324.796 157.667 C 324.578 157.593,324.400 157.008,324.400 156.367 C 324.400 155.725,324.236 155.200,324.035 155.200 C 323.834 155.200,323.542 154.442,323.386 153.515 C 323.229 152.589,322.966 151.554,322.801 151.215 C 322.635 150.877,322.118 149.818,321.650 148.862 C 321.183 147.906,320.800 146.871,320.800 146.562 C 320.800 146.253,320.620 146.000,320.400 146.000 C 320.180 146.000,320.000 145.640,320.000 145.200 C 320.000 144.760,319.820 144.400,319.600 144.400 C 319.380 144.400,319.200 144.147,319.200 143.838 C 319.200 143.321,317.662 140.062,317.200 139.600 C 316.722 139.122,316.000 137.561,316.000 137.005 C 316.000 136.672,315.820 136.400,315.600 136.400 C 315.380 136.400,315.200 136.130,315.200 135.800 C 315.200 135.470,315.020 135.200,314.800 135.200 C 314.580 135.200,314.400 134.917,314.400 134.571 C 314.400 133.965,313.498 132.800,313.029 132.800 C 312.903 132.800,312.800 133.070,312.800 133.400 M305.193 148.414 C 303.406 151.916,303.399 151.844,305.712 153.350 C 315.368 159.640,315.923 170.412,306.800 174.497 C 303.165 176.125,302.018 176.467,299.600 176.648 C 295.351 176.967,293.857 175.607,292.994 170.636 C 292.062 165.269,289.978 162.467,283.717 158.159 C 281.831 156.862,279.098 154.680,277.644 153.311 C 275.786 151.562,274.683 150.819,273.933 150.811 C 273.346 150.805,272.581 150.691,272.233 150.557 C 271.003 150.085,271.607 151.469,274.100 154.833 C 277.267 159.107,277.322 159.201,280.434 165.800 C 282.623 170.443,285.137 174.317,287.069 176.027 C 292.212 180.579,298.837 183.200,305.197 183.200 C 308.695 183.200,308.852 183.275,308.417 184.734 C 308.243 185.320,307.881 186.790,307.613 188.000 C 307.006 190.741,305.953 194.319,305.199 196.200 C 305.022 196.640,304.473 198.080,303.977 199.400 C 301.537 205.900,296.138 215.081,291.329 220.908 C 286.553 226.695,286.112 228.662,287.945 236.000 C 290.425 245.926,286.906 252.282,276.612 256.473 C 270.876 258.808,268.862 261.493,265.646 271.098 C 263.603 277.199,262.853 278.789,260.608 281.778 C 259.626 283.085,258.872 284.206,258.934 284.268 C 259.150 284.484,295.434 283.576,299.248 283.260 C 303.024 282.946,305.200 281.935,305.200 280.494 C 305.200 280.305,305.517 279.802,305.904 279.375 C 307.188 277.960,309.200 275.289,309.200 275.000 C 309.200 274.843,309.714 274.059,310.343 273.258 C 310.971 272.456,311.802 271.125,312.188 270.300 C 312.575 269.475,313.051 268.800,313.246 268.800 C 313.441 268.800,313.600 268.440,313.600 268.000 C 313.600 267.560,313.780 267.200,314.000 267.200 C 314.220 267.200,314.400 266.840,314.400 266.400 C 314.400 265.960,314.552 265.600,314.737 265.600 C 314.923 265.600,315.508 264.745,316.037 263.700 C 316.567 262.655,317.135 261.740,317.300 261.667 C 317.465 261.593,317.600 261.278,317.600 260.967 C 317.600 260.655,317.769 260.400,317.975 260.400 C 318.182 260.400,318.467 259.545,318.609 258.500 C 318.866 256.613,319.003 256.223,320.904 252.000 C 322.890 247.584,326.249 237.427,327.582 231.800 C 329.244 224.786,329.711 222.035,330.801 212.836 C 331.638 205.779,331.104 185.892,329.984 182.400 L 329.663 181.400 329.632 182.500 C 329.594 183.825,328.975 183.956,328.687 182.700 C 328.573 182.205,327.733 179.730,326.820 177.200 C 325.271 172.906,323.175 166.985,321.726 162.805 C 317.670 151.107,308.079 142.757,305.193 148.414 M328.240 174.266 C 328.608 175.799,328.800 175.944,328.800 174.690 C 328.800 174.117,328.613 173.532,328.384 173.390 C 328.111 173.221,328.062 173.523,328.240 174.266 M328.846 177.400 C 328.915 179.031,329.515 180.387,329.554 179.000 C 329.573 178.340,329.413 177.530,329.200 177.200 C 328.881 176.706,328.818 176.741,328.846 177.400 " stroke="none" fill="#045ba2" fill-rule="evenodd"></path><path id="path1" d="M200.400 67.982 C 200.400 68.192,199.199 68.417,197.732 68.482 C 196.043 68.557,195.003 68.783,194.899 69.100 C 194.772 69.484,196.039 69.600,200.367 69.600 C 206.220 69.600,206.783 69.435,204.838 68.286 C 203.606 67.558,200.400 67.338,200.400 67.982 M150.800 78.845 C 140.562 82.929,127.090 90.801,118.609 97.654 C 111.052 103.760,103.595 111.213,97.455 118.794 C 95.874 120.746,97.395 124.419,100.138 125.271 C 104.038 126.484,108.035 124.754,118.400 117.372 C 123.365 113.836,129.117 111.151,133.800 110.183 C 138.614 109.188,140.953 107.690,145.019 102.994 C 154.443 92.111,158.122 82.838,154.664 78.685 L 153.800 77.648 150.800 78.845 M212.073 83.768 C 207.806 88.320,207.678 90.434,211.600 91.583 C 216.400 92.990,216.533 93.634,212.400 95.474 C 209.731 96.662,208.495 96.920,205.467 96.920 C 201.403 96.920,200.145 96.521,194.988 93.600 C 191.838 91.816,187.686 93.096,185.300 96.588 C 183.724 98.894,183.418 102.000,184.767 102.000 C 186.035 102.000,188.924 103.419,190.157 104.647 C 194.309 108.782,193.238 115.200,188.397 115.200 C 181.436 115.200,178.332 118.841,180.961 123.924 C 183.824 129.460,190.572 128.525,200.175 121.261 C 207.742 115.536,213.566 113.734,218.281 115.656 C 221.100 116.806,221.880 117.203,222.638 117.877 C 223.561 118.699,226.000 122.176,226.000 122.672 C 226.002 123.820,229.024 126.000,230.614 126.000 C 234.180 126.000,235.889 122.915,234.582 118.837 C 234.313 117.997,234.380 117.901,235.104 118.091 L 235.935 118.308 235.121 116.854 C 234.673 116.054,233.967 114.922,233.553 114.338 C 233.139 113.754,232.800 113.157,232.800 113.010 C 232.800 112.864,232.282 111.991,231.648 111.070 C 231.015 110.149,230.138 108.767,229.699 107.998 C 229.261 107.229,227.506 104.350,225.800 101.600 C 224.094 98.850,222.347 95.984,221.917 95.231 C 221.488 94.478,220.431 92.823,219.568 91.553 C 218.706 90.283,218.000 89.163,218.000 89.065 C 218.000 88.967,217.032 87.345,215.849 85.460 L 213.698 82.034 212.073 83.768 M207.000 124.544 C 203.310 125.381,194.470 127.995,192.600 128.802 C 192.160 128.992,190.630 129.537,189.200 130.012 C 172.921 135.427,161.589 149.043,156.087 169.800 C 155.854 170.680,155.469 172.141,155.232 173.046 C 153.647 179.089,154.951 181.583,163.600 189.047 C 164.590 189.901,166.300 191.437,167.400 192.459 C 174.301 198.876,180.917 202.010,185.489 201.030 C 186.100 200.899,187.860 200.614,189.400 200.397 C 190.940 200.180,193.100 199.820,194.200 199.598 C 210.063 196.390,217.533 199.788,218.263 210.546 C 218.559 214.897,218.984 215.858,221.494 217.847 C 228.522 223.415,229.504 227.624,226.382 238.800 C 224.075 247.059,224.202 250.532,227.046 256.947 C 229.127 261.642,229.689 263.671,230.801 270.508 C 231.257 273.316,231.699 275.836,231.782 276.107 C 231.865 276.378,232.051 277.131,232.194 277.780 C 232.437 278.878,232.926 278.247,239.240 268.680 C 242.971 263.026,246.199 258.400,246.412 258.400 C 246.655 258.400,246.800 263.260,246.800 271.376 C 246.800 278.513,246.938 284.438,247.107 284.542 C 247.276 284.647,249.965 284.631,253.084 284.508 L 258.753 284.283 260.571 281.842 C 262.861 278.763,263.609 277.181,265.646 271.098 C 268.862 261.493,270.876 258.808,276.612 256.473 C 286.906 252.282,290.425 245.926,287.945 236.000 C 286.112 228.662,286.553 226.695,291.329 220.908 C 296.138 215.081,301.537 205.900,303.977 199.400 C 304.473 198.080,305.029 196.640,305.213 196.200 C 305.397 195.760,305.764 194.680,306.029 193.800 C 306.295 192.920,306.653 191.750,306.826 191.200 C 307.000 190.650,307.357 189.210,307.620 188.000 C 307.884 186.790,308.243 185.320,308.417 184.734 C 308.852 183.275,308.695 183.200,305.197 183.200 C 298.837 183.200,292.212 180.579,287.069 176.027 C 285.137 174.317,282.623 170.443,280.434 165.800 C 279.292 163.380,278.160 161.040,277.917 160.600 C 277.674 160.160,277.278 159.441,277.038 159.003 C 276.797 158.565,275.475 156.688,274.100 154.833 C 272.725 152.977,271.600 151.249,271.600 150.991 C 271.600 150.671,269.931 150.441,266.300 150.262 C 259.501 149.927,250.977 149.371,241.400 148.638 C 237.220 148.318,231.910 147.944,229.600 147.807 C 222.493 147.386,222.067 147.164,225.100 145.459 C 226.145 144.872,227.900 143.849,229.000 143.186 C 230.100 142.524,231.270 141.861,231.600 141.713 C 231.930 141.566,233.233 140.779,234.495 139.966 L 236.789 138.487 235.295 138.208 C 234.473 138.055,232.000 137.011,229.800 135.889 C 222.484 132.158,221.791 131.433,222.931 128.703 C 224.818 124.187,217.267 122.215,207.000 124.544 M239.038 132.739 C 238.758 133.191,239.086 134.960,239.656 136.075 C 239.963 136.675,240.276 136.583,242.478 135.245 C 245.380 133.480,245.674 133.011,243.900 132.971 C 243.185 132.955,241.858 132.801,240.950 132.628 C 239.887 132.425,239.207 132.465,239.038 132.739 M312.000 133.188 C 312.000 133.617,310.785 136.360,306.592 145.400 L 306.035 146.600 307.718 146.819 C 313.307 147.548,318.485 153.456,321.726 162.805 C 323.175 166.985,325.271 172.906,326.820 177.200 C 327.733 179.730,328.573 182.205,328.687 182.700 C 328.800 183.195,329.077 183.600,329.302 183.600 C 329.740 183.600,329.520 180.683,328.790 176.800 C 328.563 175.590,328.303 174.150,328.213 173.600 C 327.694 170.434,326.089 164.035,325.580 163.105 C 325.371 162.723,325.200 161.958,325.200 161.405 C 325.200 160.852,325.020 160.400,324.800 160.400 C 324.580 160.400,324.400 159.871,324.400 159.224 C 324.400 158.577,324.220 157.936,324.000 157.800 C 323.780 157.664,323.600 157.113,323.600 156.576 C 323.600 156.039,323.420 155.600,323.200 155.600 C 322.980 155.600,322.800 155.238,322.800 154.795 C 322.800 154.352,322.641 153.677,322.447 153.295 C 322.252 152.913,321.871 152.060,321.600 151.400 C 321.329 150.740,320.948 149.887,320.753 149.505 C 320.559 149.123,320.400 148.538,320.400 148.205 C 320.400 147.872,320.220 147.600,320.000 147.600 C 319.780 147.600,319.600 147.324,319.600 146.987 C 319.600 146.649,319.150 145.485,318.600 144.400 C 318.050 143.315,317.600 142.151,317.600 141.813 C 317.600 141.476,317.420 141.200,317.200 141.200 C 316.980 141.200,316.800 140.840,316.800 140.400 C 316.800 139.960,316.620 139.600,316.400 139.600 C 316.180 139.600,316.000 139.330,316.000 139.000 C 316.000 138.670,315.820 138.400,315.600 138.400 C 315.380 138.400,315.200 137.950,315.200 137.400 C 315.200 136.850,315.020 136.400,314.800 136.400 C 314.580 136.400,314.400 136.130,314.400 135.800 C 314.400 135.470,314.220 135.200,314.000 135.200 C 313.780 135.200,313.600 134.930,313.600 134.600 C 313.600 134.270,313.420 134.000,313.200 134.000 C 312.980 134.000,312.800 133.730,312.800 133.400 C 312.800 133.070,312.620 132.800,312.400 132.800 C 312.180 132.800,312.000 132.975,312.000 133.188 M277.644 153.298 C 279.098 154.674,281.831 156.862,283.717 158.159 C 289.978 162.467,292.062 165.269,292.994 170.636 C 293.857 175.607,295.351 176.967,299.600 176.648 C 302.018 176.467,303.165 176.125,306.800 174.497 C 315.953 170.399,315.369 159.638,305.651 153.311 C 304.414 152.506,303.395 152.080,303.251 152.307 C 303.090 152.559,301.203 152.587,298.000 152.383 C 295.250 152.209,289.670 151.870,285.600 151.631 C 281.530 151.392,277.480 151.106,276.600 150.996 L 275.000 150.796 277.644 153.298 M107.600 215.484 C 107.600 215.718,106.456 217.954,105.058 220.454 C 103.661 222.954,101.798 226.350,100.919 228.000 C 100.040 229.650,98.964 231.630,98.528 232.400 C 98.093 233.170,97.008 235.150,96.118 236.800 C 95.228 238.450,93.277 242.050,91.783 244.800 C 88.265 251.272,86.557 254.466,85.104 257.281 C 84.457 258.536,83.674 259.773,83.364 260.030 C 82.042 261.127,84.256 266.048,85.804 265.454 C 86.287 265.269,86.305 265.363,85.909 265.997 C 85.646 266.418,85.568 266.902,85.737 267.070 C 85.906 267.239,86.201 267.122,86.394 266.810 C 86.834 266.097,87.831 267.242,89.433 270.300 C 90.038 271.455,90.683 272.400,90.867 272.400 C 91.050 272.400,91.200 272.670,91.200 273.000 C 91.200 273.330,91.380 273.600,91.600 273.600 C 91.820 273.600,92.000 273.870,92.000 274.200 C 92.000 274.530,92.141 274.800,92.314 274.800 C 92.486 274.800,92.924 275.295,93.287 275.900 C 93.650 276.505,94.230 277.360,94.576 277.800 C 94.923 278.240,96.128 279.770,97.254 281.200 C 102.565 287.943,113.311 298.834,117.356 301.572 C 117.820 301.886,118.791 302.651,119.514 303.272 C 122.152 305.537,122.196 302.588,119.618 296.200 C 117.027 289.778,116.815 287.162,116.414 256.600 C 116.015 226.185,116.084 227.025,113.550 221.800 C 112.491 219.618,107.600 214.426,107.600 215.484 " stroke="none" fill="#5aa1a0" fill-rule="evenodd"></path><path id="path2" d="M155.800 12.421 C 154.920 12.604,153.231 12.764,152.046 12.777 C 148.994 12.810,146.057 13.700,141.956 15.835 C 141.382 16.134,140.768 16.249,140.592 16.089 C 140.416 15.930,140.389 16.005,140.531 16.255 C 140.681 16.517,140.415 16.807,139.901 16.942 C 138.688 17.259,140.049 18.368,141.676 18.387 C 142.268 18.394,142.864 18.580,143.000 18.800 C 143.136 19.020,143.689 19.200,144.229 19.200 C 144.769 19.200,145.523 19.358,145.905 19.552 C 146.287 19.745,148.130 20.400,150.000 21.006 C 170.426 27.629,184.788 37.311,193.605 50.400 C 194.568 51.830,195.563 53.210,195.815 53.466 C 196.887 54.553,200.000 59.979,200.000 60.760 C 200.000 61.515,200.649 63.050,201.201 63.600 C 201.311 63.710,201.656 64.295,201.968 64.900 C 202.280 65.505,202.685 66.000,202.868 66.000 C 203.050 66.000,203.200 66.268,203.200 66.596 C 203.200 66.924,203.816 67.596,204.568 68.090 C 205.805 68.900,213.600 80.498,213.600 81.527 C 213.600 81.720,214.590 83.455,215.800 85.382 C 217.010 87.309,218.000 88.967,218.000 89.065 C 218.000 89.163,218.706 90.283,219.568 91.553 C 220.431 92.823,221.488 94.478,221.917 95.231 C 222.347 95.984,224.094 98.850,225.800 101.600 C 227.506 104.350,229.261 107.229,229.699 107.998 C 230.138 108.767,231.015 110.149,231.648 111.070 C 232.282 111.991,232.800 112.859,232.800 113.000 C 232.800 113.141,233.340 114.041,234.000 115.000 C 234.660 115.959,235.200 116.915,235.200 117.123 C 235.200 117.332,235.466 117.722,235.790 117.992 C 236.351 118.458,240.800 125.004,240.800 125.364 C 240.800 125.458,241.806 127.179,243.035 129.187 C 245.463 133.154,245.505 133.621,243.521 134.628 C 242.794 134.997,241.345 135.907,240.299 136.649 C 239.254 137.392,238.253 138.000,238.076 138.000 C 237.898 138.000,236.684 138.651,235.376 139.447 C 233.005 140.891,230.914 142.125,229.400 142.974 C 221.535 147.381,221.532 147.329,229.600 147.807 C 231.910 147.944,237.220 148.318,241.400 148.637 C 251.321 149.397,260.232 149.978,268.400 150.399 C 272.030 150.587,277.340 150.927,280.200 151.156 C 283.060 151.385,288.460 151.764,292.200 151.997 C 295.940 152.231,299.931 152.507,301.069 152.611 L 303.138 152.800 303.626 151.321 C 303.894 150.508,304.526 149.113,305.030 148.221 C 306.895 144.917,312.000 133.908,312.000 133.188 C 312.000 132.975,312.243 132.800,312.539 132.800 C 312.836 132.800,313.398 132.035,313.788 131.100 C 314.747 128.803,316.009 125.953,316.444 125.105 C 316.640 124.723,316.800 124.138,316.800 123.805 C 316.800 123.472,316.980 123.200,317.200 123.200 C 317.420 123.200,317.600 122.930,317.600 122.600 C 317.600 122.270,317.780 122.000,318.000 122.000 C 318.220 122.000,318.400 121.766,318.400 121.480 C 318.400 120.720,319.346 118.807,319.724 118.803 C 319.902 118.801,319.945 118.635,319.820 118.432 C 319.695 118.230,319.819 117.825,320.096 117.532 C 320.373 117.240,320.650 116.550,320.712 116.000 C 320.773 115.450,320.998 114.940,321.212 114.867 C 321.425 114.793,321.600 114.432,321.600 114.063 C 321.600 113.695,322.050 112.548,322.600 111.515 C 323.150 110.482,323.600 109.358,323.600 109.018 C 323.600 108.678,323.780 108.400,324.000 108.400 C 324.220 108.400,324.400 108.051,324.400 107.624 C 324.400 107.197,324.580 106.736,324.800 106.600 C 325.020 106.464,325.200 106.003,325.200 105.576 C 325.200 105.149,325.380 104.800,325.600 104.800 C 325.820 104.800,326.000 104.440,326.000 104.000 C 326.000 103.560,326.180 103.200,326.400 103.200 C 326.620 103.200,326.800 102.851,326.800 102.424 C 326.800 101.997,326.980 101.536,327.200 101.400 C 327.420 101.264,327.600 100.803,327.600 100.376 C 327.600 99.949,327.780 99.600,328.000 99.600 C 328.220 99.600,328.400 99.330,328.400 99.000 C 328.400 98.670,328.550 98.400,328.733 98.400 C 328.917 98.400,329.067 98.153,329.067 97.852 C 329.067 97.550,329.637 96.121,330.333 94.677 C 331.030 93.232,331.600 91.859,331.600 91.625 C 331.600 91.391,331.780 91.200,332.000 91.200 C 332.220 91.200,332.400 90.884,332.400 90.499 C 332.400 90.113,333.030 88.499,333.800 86.911 C 334.570 85.324,335.200 83.750,335.200 83.413 C 335.200 83.076,335.402 82.800,335.649 82.800 C 335.959 82.800,335.944 82.615,335.600 82.200 C 334.919 81.380,330.593 82.717,329.806 83.991 C 329.674 84.204,328.944 84.674,328.183 85.035 C 327.422 85.396,326.800 85.861,326.800 86.069 C 326.800 86.277,326.640 86.349,326.445 86.228 C 326.250 86.107,325.868 86.277,325.596 86.604 C 325.324 86.932,324.854 87.200,324.551 87.200 C 324.248 87.200,324.000 87.359,324.000 87.553 C 324.000 87.880,322.534 88.524,321.943 88.458 C 321.802 88.442,321.195 88.883,320.596 89.439 C 319.996 89.995,319.257 90.354,318.953 90.237 C 318.649 90.121,318.400 90.182,318.400 90.375 C 318.400 91.287,312.504 94.185,311.814 93.612 C 311.217 93.116,309.004 88.716,309.128 88.270 C 309.179 88.089,309.054 88.043,308.852 88.168 C 308.507 88.381,307.812 87.312,307.924 86.738 C 307.952 86.594,307.710 86.257,307.387 85.989 C 307.064 85.721,306.800 85.254,306.800 84.951 C 306.800 84.648,306.620 84.400,306.400 84.400 C 306.180 84.400,306.000 84.222,306.000 84.005 C 306.000 83.407,302.686 78.000,302.320 78.000 C 302.144 78.000,302.000 77.640,302.000 77.200 C 302.000 76.760,301.865 76.399,301.700 76.397 C 301.535 76.395,301.202 75.990,300.961 75.497 C 299.978 73.491,297.487 68.967,297.108 68.500 C 296.885 68.225,296.859 67.994,297.051 67.987 C 297.243 67.980,297.130 67.755,296.800 67.487 C 296.470 67.219,295.750 66.058,295.200 64.906 C 294.650 63.755,294.065 62.810,293.900 62.806 C 293.735 62.803,293.600 62.530,293.600 62.200 C 293.600 61.870,293.420 61.600,293.200 61.600 C 292.980 61.600,292.800 61.364,292.800 61.075 C 292.800 60.787,292.485 60.202,292.100 59.775 C 291.190 58.767,289.600 55.690,289.600 54.939 C 289.600 54.616,289.441 54.451,289.246 54.571 C 289.052 54.691,288.670 54.252,288.398 53.595 C 288.126 52.938,287.715 52.400,287.485 52.400 C 287.255 52.400,287.187 52.279,287.335 52.132 C 287.482 51.984,287.328 51.444,286.992 50.932 C 286.656 50.419,286.521 49.995,286.691 49.988 C 286.861 49.981,286.681 49.790,286.292 49.563 C 285.902 49.336,285.688 48.982,285.815 48.775 C 285.943 48.569,285.827 48.400,285.557 48.400 C 285.287 48.400,285.181 48.286,285.320 48.146 C 285.460 48.007,285.222 47.446,284.792 46.899 C 284.363 46.353,284.126 45.719,284.267 45.491 C 284.416 45.251,284.329 45.197,284.062 45.362 C 283.788 45.531,283.600 45.393,283.600 45.024 C 283.600 44.681,283.285 44.081,282.900 43.692 C 282.051 42.832,280.157 39.175,280.310 38.689 C 280.370 38.497,280.235 38.455,280.010 38.594 C 279.784 38.733,279.600 38.567,279.600 38.224 C 279.600 37.881,279.420 37.600,279.200 37.600 C 278.980 37.600,278.796 37.375,278.791 37.100 C 278.786 36.825,278.430 36.150,278.000 35.600 C 277.570 35.050,277.214 34.255,277.209 33.833 C 277.204 33.412,277.083 33.184,276.939 33.327 C 276.640 33.627,275.600 31.784,275.600 30.954 C 275.600 30.649,275.432 30.400,275.227 30.400 C 275.022 30.400,274.726 29.995,274.571 29.500 C 274.415 29.005,273.633 27.610,272.833 26.400 C 272.033 25.190,271.113 23.676,270.789 23.037 C 270.465 22.397,269.705 21.343,269.100 20.694 C 268.495 20.046,268.000 19.354,268.000 19.158 C 268.000 18.961,267.858 18.800,267.683 18.800 C 267.509 18.800,266.699 18.170,265.882 17.400 C 265.066 16.630,264.219 16.000,263.999 16.000 C 263.780 16.000,263.600 15.820,263.600 15.600 C 263.600 15.380,263.319 15.200,262.976 15.200 C 262.633 15.200,262.464 15.020,262.600 14.800 C 262.736 14.580,262.487 14.400,262.047 14.400 C 261.607 14.400,261.136 14.220,261.000 14.000 C 260.864 13.780,260.349 13.600,259.856 13.600 C 259.363 13.600,258.789 13.436,258.580 13.235 C 257.618 12.312,160.035 11.538,155.800 12.421 M88.600 150.812 C 84.241 151.293,80.247 151.467,76.076 151.358 C 72.050 151.254,70.037 151.336,70.200 151.599 C 70.402 151.927,66.139 152.225,62.904 152.108 C 62.632 152.098,62.507 152.250,62.628 152.445 C 62.750 152.642,61.180 152.800,59.104 152.800 C 57.045 152.800,55.189 152.968,54.980 153.173 C 54.771 153.378,52.980 153.643,51.000 153.762 C 43.245 154.229,38.981 154.612,38.573 154.879 C 38.338 155.032,36.406 155.190,34.280 155.229 C 32.155 155.269,30.513 155.459,30.631 155.651 C 30.750 155.843,29.227 156.000,27.247 156.000 C 25.217 156.000,23.537 156.179,23.393 156.411 C 23.254 156.636,22.928 156.795,22.670 156.763 C 22.411 156.731,21.752 156.727,21.204 156.753 L 20.208 156.800 21.287 157.800 C 21.880 158.350,22.643 158.800,22.983 158.800 C 23.322 158.800,23.600 158.980,23.600 159.200 C 23.600 159.420,23.870 159.600,24.200 159.600 C 24.530 159.600,24.800 159.780,24.800 160.000 C 24.800 160.220,25.070 160.400,25.400 160.400 C 25.730 160.400,26.000 160.580,26.000 160.800 C 26.000 161.020,26.360 161.200,26.800 161.200 C 27.240 161.200,27.600 161.380,27.600 161.600 C 27.600 161.820,27.878 162.000,28.217 162.000 C 28.556 162.000,29.220 162.360,29.692 162.800 C 30.164 163.240,30.787 163.600,31.075 163.600 C 31.364 163.600,31.603 163.735,31.606 163.900 C 31.610 164.065,32.501 164.636,33.587 165.169 C 34.673 165.702,35.470 166.287,35.357 166.469 C 35.245 166.651,35.436 166.800,35.782 166.800 C 36.539 166.800,37.865 167.512,39.132 168.600 C 39.645 169.040,40.095 169.336,40.132 169.259 C 40.185 169.150,42.826 170.235,43.535 170.657 C 43.742 170.780,41.241 175.898,40.687 176.484 C 40.244 176.953,38.967 179.202,37.840 181.497 C 37.598 181.990,37.265 182.395,37.100 182.397 C 36.935 182.399,36.800 182.741,36.800 183.157 C 36.800 183.574,36.528 184.019,36.196 184.146 C 35.864 184.273,35.623 184.518,35.660 184.689 C 35.799 185.334,35.099 186.385,34.696 186.136 C 34.465 185.993,34.392 186.063,34.533 186.291 C 34.674 186.519,34.458 187.132,34.054 187.653 C 33.649 188.174,33.001 189.275,32.613 190.100 C 32.226 190.925,31.739 191.600,31.531 191.600 C 31.323 191.600,31.251 191.758,31.370 191.951 C 31.618 192.352,30.489 194.800,30.057 194.800 C 29.901 194.800,29.239 195.970,28.586 197.399 C 27.934 198.829,27.265 199.999,27.100 199.999 C 26.935 200.000,26.800 200.281,26.800 200.624 C 26.800 200.993,26.612 201.131,26.338 200.962 C 26.064 200.793,25.985 200.851,26.142 201.106 C 26.288 201.342,26.170 201.775,25.879 202.068 C 25.589 202.360,25.099 203.172,24.791 203.871 C 24.482 204.570,24.084 205.052,23.905 204.941 C 23.726 204.831,23.627 204.889,23.685 205.070 C 23.872 205.657,22.718 207.997,22.354 207.771 C 22.159 207.651,22.000 207.923,22.000 208.376 C 22.000 208.829,21.863 209.200,21.696 209.200 C 21.529 209.200,21.156 209.579,20.867 210.042 C 20.578 210.505,20.535 210.764,20.771 210.618 C 21.008 210.472,20.823 210.993,20.361 211.776 C 19.899 212.559,19.338 213.200,19.114 213.200 C 18.890 213.200,18.801 213.560,18.916 214.000 C 19.052 214.520,18.928 214.800,18.563 214.800 C 18.253 214.800,18.036 214.935,18.079 215.100 C 18.223 215.646,17.553 217.200,17.173 217.200 C 16.968 217.200,16.800 217.470,16.800 217.800 C 16.800 218.130,16.620 218.400,16.400 218.400 C 16.180 218.400,16.000 218.670,16.000 219.000 C 16.000 219.330,15.820 219.600,15.600 219.600 C 15.380 219.600,15.196 219.915,15.191 220.300 C 15.186 220.685,14.830 221.450,14.400 222.000 C 13.970 222.550,13.614 223.225,13.609 223.500 C 13.604 223.775,13.420 224.000,13.200 224.000 C 12.980 224.000,12.800 224.360,12.800 224.800 C 12.800 225.240,12.620 225.600,12.400 225.600 C 12.180 225.600,12.000 225.836,12.000 226.125 C 12.000 226.413,11.640 227.036,11.200 227.508 C 10.760 227.980,10.400 228.644,10.400 228.983 C 10.400 229.322,10.220 229.600,10.000 229.600 C 9.780 229.600,9.600 229.863,9.600 230.184 C 9.600 230.506,9.195 231.162,8.700 231.643 C 8.205 232.124,8.060 232.369,8.379 232.187 C 8.738 231.981,8.646 232.300,8.135 233.028 C 7.683 233.672,6.997 234.875,6.611 235.700 C 6.225 236.525,5.749 237.200,5.554 237.200 C 5.359 237.200,5.200 237.560,5.200 238.000 C 5.200 238.440,5.020 238.800,4.800 238.800 C 4.580 238.800,4.400 238.984,4.400 239.208 C 4.400 239.432,3.957 240.317,3.416 241.175 C 2.875 242.032,2.316 243.197,2.173 243.764 C 2.031 244.331,1.749 244.692,1.547 244.568 C 1.345 244.443,1.206 244.489,1.237 244.670 C 1.412 245.674,1.147 246.814,0.790 246.594 C 0.565 246.455,0.418 246.489,0.464 246.670 C 0.510 246.852,0.407 248.297,0.235 249.881 C -0.121 253.164,0.315 260.500,0.847 260.171 C 1.156 259.980,1.399 261.199,1.237 262.130 C 1.206 262.311,1.365 262.345,1.590 262.206 C 1.819 262.064,2.000 262.316,2.000 262.776 C 2.000 263.229,2.180 263.600,2.400 263.600 C 2.620 263.600,2.800 263.870,2.800 264.200 C 2.800 264.530,2.980 264.800,3.200 264.800 C 3.420 264.800,3.600 265.160,3.600 265.600 C 3.600 266.040,3.736 266.400,3.902 266.400 C 4.265 266.400,5.421 268.860,5.279 269.330 C 5.225 269.511,5.365 269.545,5.590 269.406 C 5.816 269.267,6.000 269.433,6.000 269.776 C 6.000 270.119,6.195 270.400,6.433 270.400 C 6.672 270.400,6.792 270.623,6.701 270.896 C 6.610 271.169,6.777 271.634,7.072 271.929 C 7.366 272.223,7.517 272.611,7.406 272.790 C 7.295 272.970,7.474 273.219,7.802 273.346 C 8.131 273.472,8.400 273.851,8.400 274.187 C 8.400 274.524,8.545 274.800,8.723 274.800 C 8.901 274.800,9.364 275.520,9.752 276.400 C 10.140 277.280,10.625 278.000,10.829 278.000 C 11.033 278.000,11.200 278.360,11.200 278.800 C 11.200 279.240,11.336 279.600,11.502 279.600 C 11.669 279.600,12.061 280.185,12.374 280.900 C 13.131 282.626,15.287 286.165,15.684 286.333 C 15.858 286.407,16.000 286.722,16.000 287.033 C 16.000 287.345,16.180 287.600,16.400 287.600 C 16.620 287.600,16.800 287.870,16.800 288.200 C 16.800 288.530,16.980 288.800,17.200 288.800 C 17.420 288.800,17.600 289.149,17.600 289.576 C 17.600 290.003,17.783 290.466,18.007 290.604 C 18.230 290.742,18.309 291.023,18.183 291.228 C 18.056 291.432,18.143 291.600,18.376 291.600 C 18.609 291.600,18.800 291.971,18.800 292.424 C 18.800 292.877,18.942 293.160,19.115 293.052 C 19.288 292.945,19.678 293.430,19.982 294.129 C 20.285 294.828,21.224 296.448,22.067 297.728 C 22.910 299.009,23.600 300.314,23.600 300.628 C 23.600 300.943,23.745 301.200,23.921 301.200 C 24.098 301.200,24.683 302.097,25.221 303.194 C 25.760 304.290,26.335 305.190,26.500 305.194 C 26.665 305.197,26.800 305.483,26.800 305.829 C 26.800 306.174,27.072 306.729,27.404 307.061 C 27.736 307.393,27.888 307.858,27.742 308.094 C 27.585 308.349,27.664 308.407,27.938 308.238 C 28.212 308.069,28.400 308.207,28.400 308.576 C 28.400 308.919,28.580 309.200,28.800 309.200 C 29.020 309.200,29.200 309.470,29.200 309.800 C 29.200 310.130,29.366 310.400,29.568 310.400 C 29.771 310.400,30.064 310.985,30.220 311.700 C 30.376 312.415,30.931 313.510,31.454 314.134 C 31.977 314.757,32.304 315.432,32.179 315.634 C 32.055 315.835,32.131 316.000,32.349 316.000 C 32.568 316.000,32.860 316.359,32.999 316.798 C 33.138 317.236,33.466 317.828,33.726 318.113 C 34.495 318.954,35.200 320.343,35.200 321.018 C 35.200 321.364,35.359 321.549,35.554 321.429 C 35.748 321.309,36.130 321.748,36.402 322.405 C 36.674 323.062,37.055 323.600,37.249 323.600 C 37.442 323.600,37.600 323.945,37.600 324.367 C 37.600 324.788,37.735 325.193,37.900 325.267 C 38.065 325.340,38.633 326.255,39.163 327.300 C 39.692 328.345,40.277 329.200,40.463 329.200 C 40.648 329.200,40.800 329.526,40.800 329.925 C 40.800 330.323,41.129 331.002,41.530 331.433 C 41.932 331.864,42.187 332.438,42.097 332.709 C 42.007 332.979,42.128 333.200,42.367 333.200 C 42.605 333.200,42.800 333.470,42.800 333.800 C 42.800 334.130,42.936 334.400,43.102 334.400 C 43.269 334.400,43.662 334.981,43.976 335.691 C 44.290 336.400,45.369 338.335,46.374 339.991 C 47.378 341.646,48.455 343.495,48.768 344.100 C 49.080 344.705,49.485 345.200,49.668 345.200 C 49.850 345.200,50.000 345.560,50.000 346.000 C 50.000 346.440,50.168 346.800,50.373 346.800 C 50.578 346.800,50.862 347.166,51.004 347.613 C 51.146 348.060,51.698 348.862,52.231 349.395 C 52.764 349.928,53.200 350.623,53.200 350.941 C 53.200 351.688,57.180 355.303,60.000 357.116 C 61.210 357.895,62.316 358.706,62.457 358.920 C 63.256 360.127,63.434 357.569,62.744 354.800 C 57.873 335.265,57.460 315.445,61.674 303.400 C 63.602 297.886,69.778 285.324,70.705 285.030 C 71.092 284.907,71.716 284.130,72.092 283.303 C 72.987 281.336,74.099 279.474,74.600 279.106 C 74.820 278.944,74.858 278.809,74.684 278.806 C 74.328 278.799,76.835 273.873,77.300 273.667 C 77.465 273.593,77.600 273.297,77.600 273.007 C 77.600 272.460,79.362 268.945,80.531 267.162 C 80.900 266.598,81.082 266.016,80.935 265.868 C 80.787 265.721,80.877 265.600,81.133 265.600 C 81.390 265.600,81.600 265.319,81.600 264.976 C 81.600 264.633,81.780 264.464,82.000 264.600 C 82.220 264.736,82.400 264.487,82.400 264.047 C 82.400 263.607,82.581 263.136,82.801 262.999 C 83.022 262.863,83.091 262.305,82.954 261.759 C 82.790 261.107,82.935 260.513,83.377 260.025 C 83.747 259.616,84.553 258.319,85.168 257.141 C 86.767 254.079,88.672 250.525,91.783 244.800 C 93.277 242.050,95.228 238.450,96.118 236.800 C 97.008 235.150,98.093 233.170,98.528 232.400 C 98.964 231.630,100.040 229.650,100.919 228.000 C 101.798 226.350,103.648 222.977,105.030 220.505 C 106.412 218.033,107.664 215.603,107.813 215.105 C 108.262 213.603,110.811 209.200,111.232 209.200 C 111.722 209.200,114.366 210.655,124.975 216.763 C 129.581 219.414,133.421 221.512,133.509 221.425 C 133.679 221.254,131.862 217.507,116.713 186.800 C 111.340 175.910,105.071 163.175,102.782 158.500 L 98.619 150.000 96.809 150.053 C 95.814 150.082,92.120 150.424,88.600 150.812 M398.247 252.500 C 385.127 265.761,368.305 276.476,355.400 279.791 C 349.134 281.401,333.242 282.639,332.581 281.570 C 332.410 281.292,330.708 281.180,327.787 281.255 C 325.296 281.318,323.346 281.512,323.453 281.685 C 323.560 281.858,319.992 282.026,315.524 282.057 C 306.019 282.124,305.740 282.143,302.600 282.976 C 300.268 283.595,277.824 284.317,254.400 284.527 L 247.000 284.593 246.895 271.497 C 246.830 263.495,246.640 258.400,246.406 258.400 C 246.196 258.400,244.458 260.785,242.544 263.700 C 240.631 266.615,230.726 281.552,220.533 296.893 C 210.340 312.234,202.007 325.014,202.015 325.293 C 202.023 325.572,202.929 326.970,204.030 328.400 C 205.681 330.545,205.992 331.205,205.811 332.171 C 205.690 332.815,205.704 333.230,205.840 333.093 C 206.120 332.814,208.000 334.905,208.000 335.496 C 208.000 335.705,208.366 336.208,208.814 336.613 C 209.262 337.018,209.538 337.586,209.427 337.875 C 209.316 338.164,209.444 338.406,209.713 338.413 C 209.981 338.419,210.546 338.899,210.968 339.478 C 211.444 340.130,211.520 340.405,211.168 340.200 C 210.856 340.018,211.050 340.318,211.600 340.866 C 213.004 342.266,214.000 343.548,214.000 343.956 C 214.000 344.146,214.274 344.530,214.610 344.808 C 214.945 345.086,215.126 345.407,215.012 345.521 C 214.898 345.635,215.524 346.412,216.402 347.248 C 217.281 348.084,218.000 348.955,218.000 349.183 C 218.000 349.665,220.698 353.524,224.535 358.528 C 225.011 359.149,225.703 360.204,226.074 360.873 C 226.444 361.542,227.190 362.586,227.730 363.192 C 228.271 363.799,229.043 364.814,229.447 365.448 C 229.851 366.082,230.410 366.744,230.690 366.920 C 230.971 367.096,231.200 367.495,231.200 367.806 C 231.200 368.118,231.725 368.909,232.367 369.566 C 233.008 370.222,233.650 371.128,233.794 371.580 C 233.937 372.031,234.222 372.400,234.427 372.400 C 234.632 372.400,234.800 372.688,234.800 373.040 C 234.800 373.391,235.340 374.183,236.000 374.800 C 236.660 375.417,237.200 376.127,237.200 376.379 C 237.200 376.630,237.653 377.290,238.208 377.844 C 238.762 378.398,239.094 379.048,238.946 379.288 C 238.798 379.527,238.846 379.619,239.054 379.490 C 239.365 379.298,240.928 381.423,243.800 385.940 C 246.940 390.878,247.200 390.038,247.200 374.980 L 247.200 361.607 290.700 361.467 C 331.840 361.334,336.897 361.213,337.427 360.356 C 337.548 360.160,337.997 360.000,338.424 360.000 C 338.851 360.000,339.200 359.820,339.200 359.600 C 339.200 359.380,339.474 359.200,339.809 359.200 C 341.193 359.200,347.509 354.043,346.887 353.420 C 346.766 353.299,346.877 353.200,347.133 353.200 C 347.390 353.200,347.600 352.930,347.600 352.600 C 347.600 352.270,347.780 352.000,348.000 352.000 C 348.220 352.000,348.400 351.730,348.400 351.400 C 348.400 351.070,348.535 350.799,348.700 350.797 C 349.005 350.794,350.000 348.901,350.000 348.325 C 350.000 348.023,350.835 346.906,351.900 345.784 C 352.175 345.494,352.400 345.085,352.400 344.874 C 352.400 344.174,353.475 342.408,353.739 342.673 C 353.883 342.816,354.004 342.588,354.009 342.167 C 354.014 341.745,354.370 340.950,354.800 340.400 C 355.230 339.850,355.586 339.209,355.591 338.975 C 355.596 338.742,355.938 338.188,356.351 337.745 C 356.764 337.301,357.238 336.502,357.404 335.969 C 357.734 334.907,359.186 332.679,359.686 332.467 C 359.858 332.393,360.000 332.076,360.000 331.761 C 360.000 331.232,360.735 329.664,361.201 329.200 C 361.311 329.090,361.665 328.460,361.988 327.800 C 362.311 327.140,363.076 325.848,363.688 324.928 C 364.299 324.008,364.800 323.141,364.800 323.000 C 364.800 322.859,365.311 321.992,365.935 321.072 C 366.559 320.152,367.323 318.815,367.632 318.100 C 367.942 317.385,368.314 316.800,368.459 316.800 C 368.603 316.800,368.910 316.260,369.140 315.600 C 369.370 314.940,369.758 314.400,370.003 314.400 C 370.247 314.400,370.336 314.220,370.200 314.000 C 370.064 313.780,370.154 313.600,370.400 313.600 C 370.646 313.600,370.745 313.435,370.620 313.232 C 370.495 313.030,370.664 312.593,370.996 312.261 C 371.328 311.929,371.600 311.374,371.600 311.029 C 371.600 310.683,371.759 310.400,371.953 310.400 C 372.148 310.400,372.413 310.085,372.542 309.700 C 372.787 308.974,373.779 307.207,374.923 305.462 C 375.287 304.906,375.931 303.834,376.355 303.080 C 376.778 302.326,377.367 301.280,377.662 300.755 C 377.958 300.230,378.290 299.710,378.400 299.600 C 378.726 299.274,379.982 297.106,380.717 295.600 C 381.092 294.830,381.493 294.110,381.606 294.000 C 381.719 293.890,382.169 293.037,382.606 292.105 C 383.043 291.172,383.535 290.407,383.700 290.405 C 383.865 290.402,384.000 290.040,384.000 289.600 C 384.000 289.160,384.158 288.800,384.351 288.800 C 384.545 288.800,384.927 288.260,385.200 287.600 C 385.473 286.940,385.855 286.400,386.049 286.400 C 386.242 286.400,386.400 286.130,386.400 285.800 C 386.400 285.470,386.538 285.200,386.706 285.200 C 386.874 285.200,387.319 284.525,387.694 283.700 C 388.542 281.838,391.105 277.208,391.735 276.400 C 391.992 276.070,392.816 274.585,393.566 273.100 C 394.317 271.615,395.081 270.400,395.265 270.400 C 395.449 270.400,395.604 270.175,395.609 269.900 C 395.614 269.625,395.970 268.950,396.400 268.400 C 396.830 267.850,397.186 266.984,397.191 266.476 C 397.196 265.964,397.378 265.663,397.600 265.800 C 397.827 265.940,398.000 265.604,398.000 265.024 C 398.000 264.461,398.180 264.000,398.400 264.000 C 398.620 264.000,398.800 263.539,398.800 262.976 C 398.800 262.413,398.950 262.045,399.133 262.159 C 399.546 262.414,399.535 262.501,399.849 256.300 C 400.134 250.697,400.103 250.624,398.247 252.500 " stroke="none" fill="#43ab4c" fill-rule="evenodd"></path><path id="path3" d="M138.282 18.124 C 137.087 18.916,132.940 23.079,131.946 24.484 C 131.434 25.208,130.689 26.160,130.291 26.600 C 129.071 27.947,123.600 36.654,123.600 37.248 C 123.600 37.442,123.420 37.600,123.200 37.600 C 122.980 37.600,122.800 37.960,122.800 38.400 C 122.800 38.840,122.641 39.200,122.447 39.200 C 122.252 39.200,121.993 39.515,121.871 39.900 C 121.654 40.585,120.396 42.804,120.000 43.200 C 119.890 43.310,119.558 43.830,119.262 44.355 C 118.457 45.786,117.559 47.341,114.646 52.350 C 113.191 54.853,112.000 57.058,112.000 57.250 C 112.000 57.443,111.820 57.600,111.600 57.600 C 111.380 57.600,111.200 57.960,111.200 58.400 C 111.200 58.840,111.041 59.200,110.847 59.200 C 110.652 59.200,110.393 59.515,110.271 59.900 C 109.975 60.836,108.676 62.966,108.300 63.133 C 108.135 63.207,108.000 63.612,108.000 64.033 C 108.000 64.455,107.841 64.800,107.646 64.800 C 107.451 64.800,106.996 65.385,106.635 66.100 C 106.274 66.815,105.664 67.940,105.279 68.600 C 104.894 69.260,103.875 71.060,103.013 72.600 C 102.152 74.140,101.325 75.490,101.175 75.600 C 101.025 75.710,100.519 76.610,100.051 77.600 C 99.583 78.590,98.652 80.300,97.982 81.400 C 97.313 82.500,96.662 83.715,96.536 84.100 C 96.410 84.485,96.148 84.800,95.953 84.800 C 95.759 84.800,95.600 85.160,95.600 85.600 C 95.600 86.040,95.441 86.400,95.247 86.400 C 95.052 86.400,94.790 86.715,94.664 87.100 C 94.538 87.485,93.891 88.700,93.225 89.800 C 92.560 90.900,91.607 92.610,91.108 93.600 C 90.609 94.590,90.111 95.490,90.000 95.600 C 89.890 95.710,89.363 96.610,88.830 97.600 C 88.296 98.590,87.756 99.490,87.630 99.600 C 87.158 100.010,86.400 101.610,86.400 102.195 C 86.400 102.528,86.220 102.800,86.000 102.800 C 85.780 102.800,85.600 103.070,85.600 103.400 C 85.600 103.730,85.441 104.000,85.247 104.000 C 85.052 104.000,84.790 104.315,84.664 104.700 C 84.538 105.085,83.952 106.210,83.361 107.200 C 78.271 115.729,78.209 115.931,80.300 117.064 C 81.125 117.511,82.430 118.244,83.200 118.693 C 90.694 123.062,92.617 124.030,93.376 123.811 C 94.189 123.577,96.800 120.358,96.800 119.591 C 96.800 118.495,107.198 107.425,113.800 101.492 C 122.935 93.283,138.240 83.658,148.600 79.608 C 149.920 79.091,151.180 78.539,151.400 78.381 C 151.620 78.222,152.430 77.968,153.200 77.815 C 153.970 77.663,156.130 77.018,158.000 76.383 C 161.337 75.249,164.627 74.296,167.800 73.543 C 168.680 73.334,170.120 72.981,171.000 72.759 C 172.479 72.385,173.424 72.197,179.000 71.167 C 180.100 70.964,182.215 70.684,183.700 70.545 C 185.185 70.406,186.393 70.182,186.385 70.046 C 186.364 69.685,179.730 61.213,176.952 58.000 C 176.477 57.450,174.782 55.470,173.187 53.600 C 167.105 46.473,161.479 40.484,146.516 25.210 C 143.170 21.795,140.602 18.941,140.808 18.869 C 141.142 18.753,143.735 19.467,148.600 21.015 C 163.573 25.778,176.928 33.108,185.345 41.183 C 189.440 45.111,199.084 58.161,199.709 60.620 C 199.893 61.345,199.910 61.347,199.954 60.654 C 199.996 59.967,196.870 54.536,195.815 53.466 C 195.563 53.210,194.568 51.830,193.605 50.400 C 184.788 37.311,170.426 27.629,150.000 21.006 C 148.130 20.400,146.287 19.745,145.905 19.552 C 145.523 19.358,144.769 19.200,144.229 19.200 C 143.689 19.200,143.136 19.020,143.000 18.800 C 142.864 18.580,142.234 18.400,141.600 18.400 C 140.966 18.400,140.336 18.220,140.200 18.000 C 139.880 17.482,139.181 17.527,138.282 18.124 M206.609 70.626 C 206.981 71.301,207.641 72.291,208.076 72.826 L 208.867 73.800 208.191 72.574 C 207.819 71.899,207.159 70.909,206.724 70.374 L 205.933 69.400 206.609 70.626 M210.400 76.520 C 210.400 76.904,212.445 80.000,212.699 80.000 C 212.878 80.000,212.241 78.919,210.939 77.011 C 210.642 76.577,210.400 76.356,210.400 76.520 M239.015 123.100 C 240.356 125.185,240.800 125.777,240.800 125.480 C 240.800 125.096,238.755 122.000,238.501 122.000 C 238.395 122.000,238.626 122.495,239.015 123.100 M241.149 126.600 C 241.365 127.040,241.834 127.760,242.193 128.200 L 242.844 129.000 242.451 128.200 C 242.235 127.760,241.766 127.040,241.407 126.600 L 240.756 125.800 241.149 126.600 M243.549 130.600 C 243.765 131.040,244.234 131.760,244.593 132.200 L 245.244 133.000 244.851 132.200 C 244.635 131.760,244.166 131.040,243.807 130.600 L 243.156 129.800 243.549 130.600 M342.600 150.527 C 339.593 152.167,338.256 152.944,338.000 153.200 C 337.604 153.596,335.385 154.854,334.700 155.071 C 334.315 155.193,334.000 155.452,334.000 155.647 C 334.000 155.841,333.640 156.000,333.200 156.000 C 332.760 156.000,332.400 156.159,332.400 156.353 C 332.400 156.548,332.085 156.807,331.700 156.929 C 331.015 157.146,328.796 158.404,328.400 158.800 C 328.290 158.910,327.660 159.306,327.000 159.679 C 325.528 160.512,325.445 163.409,326.800 166.600 C 326.987 167.040,327.253 167.940,327.391 168.600 C 327.530 169.260,327.822 170.610,328.040 171.600 C 328.982 175.874,329.280 177.549,330.421 185.000 C 331.088 189.354,331.370 208.358,330.834 212.800 C 329.813 221.252,328.635 227.941,327.240 233.200 C 325.956 238.046,325.544 239.510,325.217 240.400 C 325.015 240.950,324.184 243.290,323.372 245.600 C 321.990 249.527,320.098 254.100,319.194 255.695 C 318.421 257.059,319.268 260.586,320.500 261.133 C 320.665 261.207,320.800 261.507,320.800 261.800 C 320.800 262.093,320.935 262.393,321.100 262.467 C 321.481 262.636,322.777 264.770,323.077 265.722 C 323.274 266.346,323.611 266.411,325.552 266.202 C 329.327 265.794,345.202 263.435,348.600 262.777 C 352.357 262.049,360.998 260.306,362.400 259.993 C 363.170 259.821,364.700 259.490,365.800 259.257 C 367.548 258.887,380.349 255.663,394.277 252.087 C 397.966 251.139,398.695 251.048,398.415 251.568 C 397.637 253.015,387.103 262.204,382.800 265.190 C 382.030 265.724,381.310 266.274,381.200 266.411 C 379.924 268.001,366.691 275.360,361.600 277.310 C 361.050 277.521,360.287 277.852,359.905 278.047 C 359.523 278.241,358.859 278.400,358.429 278.400 C 357.999 278.400,357.551 278.556,357.433 278.746 C 357.316 278.936,356.450 279.221,355.510 279.379 C 354.569 279.537,352.810 279.833,351.600 280.038 C 347.542 280.726,340.635 281.336,336.538 281.368 C 334.304 281.386,332.560 281.535,332.662 281.700 C 333.250 282.652,349.611 281.278,355.400 279.791 C 360.109 278.582,361.464 278.047,368.166 274.758 C 377.986 269.938,387.832 262.642,398.523 252.265 L 400.104 250.730 399.828 247.665 C 399.676 245.979,399.383 244.429,399.176 244.220 C 398.969 244.011,398.800 243.426,398.800 242.920 C 398.800 242.414,398.620 242.000,398.400 242.000 C 398.180 242.000,398.000 241.561,398.000 241.024 C 398.000 240.487,397.820 239.936,397.600 239.800 C 397.380 239.664,397.200 239.203,397.200 238.776 C 397.200 238.349,397.020 238.000,396.800 238.000 C 396.580 238.000,396.400 237.747,396.400 237.438 C 396.400 236.772,394.732 233.459,394.300 233.267 C 394.135 233.193,394.000 232.828,394.000 232.456 C 394.000 232.083,393.758 231.423,393.463 230.989 C 393.167 230.555,392.387 229.210,391.730 228.000 C 390.046 224.901,389.430 223.830,389.200 223.600 C 389.090 223.490,388.692 222.770,388.317 222.000 C 387.337 219.994,386.248 218.222,385.900 218.067 C 385.735 217.993,385.600 217.671,385.600 217.350 C 385.600 217.029,385.240 216.380,384.800 215.908 C 384.360 215.436,384.000 214.813,384.000 214.525 C 384.000 214.236,383.820 214.000,383.600 214.000 C 383.380 214.000,383.200 213.640,383.200 213.200 C 383.200 212.760,383.020 212.400,382.800 212.400 C 382.580 212.400,382.400 212.235,382.400 212.033 C 382.400 211.831,381.590 210.296,380.600 208.622 C 379.610 206.947,378.800 205.402,378.800 205.188 C 378.800 204.975,378.620 204.800,378.400 204.800 C 378.180 204.800,378.000 204.440,378.000 204.000 C 378.000 203.560,377.841 203.200,377.647 203.200 C 377.452 203.200,377.193 202.885,377.071 202.500 C 376.834 201.753,375.554 199.533,375.168 199.200 C 375.040 199.090,374.681 198.415,374.370 197.700 C 374.059 196.985,373.669 196.400,373.502 196.400 C 373.336 196.400,373.200 196.130,373.200 195.800 C 373.200 195.470,373.020 195.200,372.800 195.200 C 372.580 195.200,372.400 194.930,372.400 194.600 C 372.400 194.270,372.220 194.000,372.000 194.000 C 371.780 194.000,371.600 193.640,371.600 193.200 C 371.600 192.760,371.465 192.399,371.300 192.397 C 371.135 192.395,370.802 191.990,370.560 191.497 C 369.453 189.239,366.965 184.845,365.935 183.328 C 365.311 182.408,364.800 181.463,364.800 181.228 C 364.800 180.993,364.620 180.800,364.400 180.800 C 364.180 180.800,364.000 180.440,364.000 180.000 C 364.000 179.560,363.820 179.200,363.600 179.200 C 363.380 179.200,363.200 178.930,363.200 178.600 C 363.200 178.270,363.020 178.000,362.800 178.000 C 362.580 178.000,362.400 177.730,362.400 177.400 C 362.400 177.070,362.254 176.800,362.075 176.800 C 361.896 176.800,361.502 176.170,361.200 175.400 C 360.898 174.630,360.525 174.000,360.372 174.000 C 360.219 174.000,359.990 173.685,359.864 173.300 C 359.738 172.915,359.157 171.790,358.573 170.800 C 355.538 165.658,354.800 164.324,354.800 163.979 C 354.800 163.770,354.620 163.600,354.400 163.600 C 354.180 163.600,354.000 163.432,354.000 163.227 C 354.000 162.750,351.499 158.644,351.100 158.467 C 350.935 158.393,350.800 157.988,350.800 157.567 C 350.800 157.145,350.620 156.800,350.400 156.800 C 350.180 156.800,350.000 156.530,350.000 156.200 C 350.000 155.870,349.820 155.600,349.600 155.600 C 349.380 155.600,349.200 155.330,349.200 155.000 C 349.200 154.670,349.064 154.400,348.898 154.400 C 348.731 154.400,348.340 153.815,348.027 153.100 C 346.205 148.932,345.841 148.759,342.600 150.527 M92.900 150.276 C 93.285 150.376,93.915 150.376,94.300 150.276 C 94.685 150.175,94.370 150.093,93.600 150.093 C 92.830 150.093,92.515 150.175,92.900 150.276 M84.900 151.076 C 85.285 151.176,85.915 151.176,86.300 151.076 C 86.685 150.975,86.370 150.893,85.600 150.893 C 84.830 150.893,84.515 150.975,84.900 151.076 M108.278 169.795 C 108.644 170.562,109.014 171.119,109.101 171.032 C 109.284 170.849,108.070 168.400,107.796 168.400 C 107.695 168.400,107.912 169.028,108.278 169.795 M111.879 177.100 C 112.167 177.894,113.200 179.497,113.200 179.150 C 113.200 178.802,111.963 176.400,111.783 176.400 C 111.696 176.400,111.739 176.715,111.879 177.100 M113.479 180.300 C 113.767 181.094,114.800 182.697,114.800 182.350 C 114.800 182.002,113.563 179.600,113.383 179.600 C 113.296 179.600,113.339 179.915,113.479 180.300 M119.234 191.800 C 119.234 192.020,119.578 192.830,120.000 193.600 C 120.422 194.370,120.766 194.820,120.766 194.600 C 120.766 194.380,120.422 193.570,120.000 192.800 C 119.578 192.030,119.234 191.580,119.234 191.800 M121.478 196.595 C 121.844 197.362,122.214 197.919,122.301 197.832 C 122.484 197.649,121.270 195.200,120.996 195.200 C 120.895 195.200,121.112 195.828,121.478 196.595 M110.392 210.100 C 110.022 210.863,110.035 210.904,110.478 210.365 C 110.765 210.016,111.270 209.625,111.600 209.496 C 112.086 209.307,112.070 209.257,111.514 209.232 C 111.137 209.214,110.632 209.605,110.392 210.100 M109.000 212.400 C 108.659 213.060,108.469 213.600,108.579 213.600 C 108.689 213.600,109.059 213.060,109.400 212.400 C 109.741 211.740,109.931 211.200,109.821 211.200 C 109.711 211.200,109.341 211.740,109.000 212.400 M115.200 211.379 C 115.200 211.489,115.740 211.859,116.400 212.200 C 117.060 212.541,117.600 212.731,117.600 212.621 C 117.600 212.511,117.060 212.141,116.400 211.800 C 115.740 211.459,115.200 211.269,115.200 211.379 M118.000 212.979 C 118.000 213.089,118.540 213.459,119.200 213.800 C 119.860 214.141,120.400 214.331,120.400 214.221 C 120.400 214.111,119.860 213.741,119.200 213.400 C 118.540 213.059,118.000 212.869,118.000 212.979 M121.600 215.164 C 122.150 215.614,122.780 215.983,123.000 215.985 C 123.428 215.988,122.705 215.434,121.400 214.760 C 120.869 214.485,120.936 214.621,121.600 215.164 M130.800 215.353 C 130.800 215.782,131.990 218.000,132.221 218.000 C 132.331 218.000,132.123 217.415,131.759 216.700 C 131.017 215.240,130.800 214.936,130.800 215.353 M124.400 216.764 C 124.950 217.214,125.580 217.583,125.800 217.585 C 126.228 217.588,125.505 217.034,124.200 216.360 C 123.669 216.085,123.736 216.221,124.400 216.764 M127.200 218.364 C 127.750 218.814,128.380 219.183,128.600 219.185 C 129.028 219.188,128.305 218.634,127.000 217.960 C 126.469 217.685,126.536 217.821,127.200 218.364 M132.401 218.624 C 132.401 218.856,132.664 219.396,132.987 219.824 C 134.016 221.183,133.757 221.702,132.400 221.000 C 131.740 220.659,131.200 220.469,131.200 220.579 C 131.200 220.789,133.400 222.000,133.780 222.000 C 134.251 222.000,133.963 220.758,133.201 219.510 C 132.762 218.789,132.402 218.391,132.401 218.624 M297.700 283.487 C 298.305 283.578,299.295 283.578,299.900 283.487 C 300.505 283.395,300.010 283.320,298.800 283.320 C 297.590 283.320,297.095 283.395,297.700 283.487 M289.700 283.887 C 290.305 283.978,291.295 283.978,291.900 283.887 C 292.505 283.795,292.010 283.720,290.800 283.720 C 289.590 283.720,289.095 283.795,289.700 283.887 M267.300 284.287 C 267.905 284.378,268.895 284.378,269.500 284.287 C 270.105 284.195,269.610 284.120,268.400 284.120 C 267.190 284.120,266.695 284.195,267.300 284.287 M72.600 284.662 C 72.160 284.755,71.400 284.916,70.912 285.020 C 70.226 285.166,69.392 286.507,67.251 290.905 C 62.693 300.270,60.356 306.094,60.427 307.908 C 60.462 308.794,60.895 307.802,61.609 305.200 C 61.881 304.210,62.350 302.815,62.652 302.100 C 62.953 301.385,63.488 300.125,63.839 299.300 C 64.191 298.475,65.856 295.010,67.539 291.600 L 70.600 285.400 75.900 285.288 C 78.984 285.223,81.200 285.014,81.200 284.788 C 81.200 284.410,74.272 284.308,72.600 284.662 M88.000 285.222 C 88.000 285.674,87.656 286.799,87.237 287.722 C 83.412 296.130,76.696 314.706,72.748 327.800 C 72.283 329.340,71.766 331.050,71.598 331.600 C 71.430 332.150,71.071 333.410,70.800 334.400 C 70.529 335.390,70.169 336.650,70.000 337.200 C 69.831 337.750,69.471 339.010,69.200 340.000 C 68.929 340.990,68.558 342.250,68.376 342.800 C 68.194 343.350,67.390 346.320,66.589 349.400 C 64.469 357.552,63.931 358.673,63.473 355.900 C 63.354 355.185,63.055 353.790,62.807 352.800 C 62.172 350.265,61.654 347.744,61.267 345.300 C 60.944 343.264,60.400 342.012,60.400 343.304 C 60.400 344.218,61.855 351.371,62.616 354.200 C 62.971 355.520,63.266 357.185,63.271 357.900 C 63.278 358.907,63.451 359.200,64.040 359.200 C 64.458 359.200,64.800 359.380,64.800 359.600 C 64.800 359.820,65.239 360.000,65.776 360.000 C 66.313 360.000,66.864 360.180,67.000 360.400 C 67.136 360.620,67.766 360.800,68.400 360.800 C 69.034 360.800,69.664 360.980,69.800 361.200 C 69.936 361.420,70.926 361.600,72.000 361.600 C 73.074 361.600,74.064 361.780,74.200 362.000 C 74.341 362.228,76.377 362.400,78.944 362.400 C 81.473 362.400,83.619 362.579,83.849 362.809 C 84.253 363.213,137.765 363.072,166.500 362.591 L 179.200 362.378 179.200 346.618 C 179.200 329.238,179.253 329.600,176.718 329.600 C 176.044 329.600,174.842 329.428,174.046 329.217 C 173.251 329.007,170.980 328.449,169.000 327.978 C 165.055 327.039,164.472 326.874,159.857 325.388 C 145.851 320.881,126.655 310.710,119.665 304.094 C 119.371 303.816,118.471 303.096,117.665 302.496 C 115.065 300.558,112.335 297.995,105.557 291.129 L 98.915 284.400 93.457 284.400 C 88.218 284.400,88.000 284.433,88.000 285.222 M259.700 284.676 C 260.085 284.776,260.715 284.776,261.100 284.676 C 261.485 284.575,261.170 284.493,260.400 284.493 C 259.630 284.493,259.315 284.575,259.700 284.676 M59.782 310.982 C 59.629 312.002,59.602 312.935,59.722 313.055 C 59.842 313.175,60.065 312.439,60.218 311.418 C 60.371 310.398,60.398 309.465,60.278 309.345 C 60.158 309.225,59.935 309.961,59.782 310.982 M59.059 315.700 C 58.735 318.399,58.789 331.588,59.135 334.200 C 59.281 335.300,59.400 331.115,59.400 324.900 C 59.400 318.685,59.380 313.600,59.356 313.600 C 59.331 313.600,59.198 314.545,59.059 315.700 M59.670 337.600 C 59.657 338.370,59.795 339.720,59.977 340.600 L 60.308 342.200 60.307 340.400 C 60.306 339.410,60.168 338.060,60.000 337.400 L 59.695 336.200 59.670 337.600 " stroke="none" fill="#33833c" fill-rule="evenodd"></path><path id="path4" d="M153.600 12.418 C 153.162 12.715,153.324 12.752,154.200 12.556 C 155.671 12.227,155.990 11.998,154.967 12.006 C 154.545 12.009,153.930 12.195,153.600 12.418 M140.433 18.970 C 160.508 39.454,166.728 46.030,173.187 53.600 C 174.782 55.470,176.477 57.450,176.952 58.000 C 179.269 60.680,185.746 68.891,186.337 69.897 C 186.721 70.551,192.872 69.794,194.600 68.880 C 196.110 68.081,197.047 67.200,196.386 67.200 C 196.127 67.200,196.485 66.668,197.181 66.018 C 197.877 65.367,198.474 64.480,198.507 64.045 C 198.539 63.611,198.709 63.344,198.883 63.451 C 199.057 63.559,199.200 63.367,199.200 63.024 C 199.200 62.681,199.394 62.400,199.632 62.400 C 201.855 62.400,191.626 47.208,185.345 41.183 C 176.844 33.028,163.052 25.513,148.000 20.834 C 147.230 20.595,145.445 20.039,144.034 19.600 C 141.641 18.854,140.046 18.575,140.433 18.970 M130.893 25.200 C 130.618 25.640,130.531 26.000,130.700 26.000 C 130.869 26.000,131.232 25.640,131.507 25.200 C 131.782 24.760,131.869 24.400,131.700 24.400 C 131.531 24.400,131.168 24.760,130.893 25.200 M113.479 53.574 C 112.504 55.225,112.653 55.651,113.657 54.083 C 114.120 53.359,114.423 52.690,114.329 52.596 C 114.235 52.502,113.852 52.942,113.479 53.574 M343.800 149.458 L 343.000 150.108 343.800 149.808 C 345.400 149.210,346.000 149.114,346.009 149.453 C 346.014 149.644,346.392 150.250,346.850 150.800 L 347.682 151.800 346.921 150.400 C 346.063 148.823,344.983 148.497,343.800 149.458 M369.209 188.833 C 369.214 189.145,369.585 189.850,370.033 190.400 L 370.848 191.400 370.173 190.000 C 369.348 188.288,369.197 188.106,369.209 188.833 M380.446 208.396 C 380.939 209.273,381.421 209.913,381.517 209.817 C 381.710 209.623,380.049 206.800,379.742 206.800 C 379.636 206.800,379.952 207.518,380.446 208.396 M394.400 252.013 C 387.565 253.834,367.964 258.799,365.800 259.257 C 364.700 259.490,363.170 259.821,362.400 259.993 C 360.970 260.312,352.208 262.079,348.600 262.776 C 346.000 263.278,334.809 264.988,330.200 265.587 C 324.388 266.342,324.041 266.411,323.769 266.850 C 323.626 267.081,323.710 267.470,323.955 267.715 C 324.200 267.960,324.400 268.484,324.400 268.880 C 324.400 269.276,324.558 269.600,324.751 269.600 C 324.945 269.600,325.327 270.140,325.600 270.800 C 325.873 271.460,326.255 272.000,326.449 272.000 C 326.642 272.000,326.800 272.360,326.800 272.800 C 326.800 273.240,326.980 273.600,327.200 273.600 C 327.420 273.600,327.600 273.836,327.600 274.125 C 327.600 274.413,327.960 275.036,328.400 275.508 C 328.840 275.980,329.203 276.599,329.206 276.883 C 329.210 277.250,329.325 277.226,329.600 276.800 C 329.894 276.345,329.989 276.514,329.994 277.500 C 329.997 278.215,330.180 278.800,330.400 278.800 C 330.620 278.800,330.800 279.083,330.800 279.429 C 330.800 281.808,339.630 282.066,351.600 280.038 C 352.810 279.833,354.569 279.537,355.510 279.379 C 356.450 279.221,357.316 278.936,357.433 278.746 C 357.551 278.556,357.999 278.400,358.429 278.400 C 358.859 278.400,359.523 278.241,359.905 278.047 C 360.287 277.852,361.050 277.521,361.600 277.310 C 366.691 275.360,379.924 268.001,381.200 266.411 C 381.310 266.274,382.030 265.724,382.800 265.190 C 388.222 261.428,401.011 249.901,398.714 250.847 C 398.651 250.873,396.710 251.397,394.400 252.013 M71.867 283.867 C 71.334 284.399,71.620 284.799,72.500 284.754 C 73.185 284.718,73.232 284.663,72.695 284.523 C 72.307 284.422,72.093 284.173,72.219 283.970 C 72.483 283.542,72.258 283.476,71.867 283.867 M81.200 284.788 C 81.200 285.014,78.984 285.223,75.900 285.288 L 70.600 285.400 67.539 291.600 C 65.856 295.010,64.191 298.475,63.839 299.300 C 63.488 300.125,62.953 301.385,62.652 302.100 C 62.147 303.298,61.575 305.158,60.777 308.200 C 59.959 311.319,59.553 314.914,59.344 320.893 C 58.987 331.105,60.221 342.472,62.807 352.800 C 63.055 353.790,63.354 355.185,63.473 355.900 C 63.931 358.673,64.469 357.552,66.589 349.400 C 67.390 346.320,68.194 343.350,68.376 342.800 C 68.558 342.250,68.929 340.990,69.200 340.000 C 69.471 339.010,69.831 337.750,70.000 337.200 C 70.169 336.650,70.529 335.390,70.800 334.400 C 71.071 333.410,71.430 332.150,71.598 331.600 C 71.766 331.050,72.283 329.340,72.748 327.800 C 76.696 314.706,83.412 296.130,87.237 287.722 C 88.655 284.603,88.494 284.400,84.600 284.400 C 82.668 284.400,81.200 284.568,81.200 284.788 M82.400 362.800 C 82.400 363.020,82.771 363.200,83.224 363.200 C 83.677 363.200,83.936 363.020,83.800 362.800 C 83.664 362.580,83.293 362.400,82.976 362.400 C 82.659 362.400,82.400 362.580,82.400 362.800 M154.000 362.800 C 153.515 363.114,153.572 363.189,154.300 363.194 C 154.795 363.197,155.200 363.020,155.200 362.800 C 155.200 362.299,154.776 362.299,154.000 362.800 " stroke="none" fill="#046436" fill-rule="evenodd"></path>
    </g>
</svg>
